<svg xmlns="http://www.w3.org/2000/svg" viewBox="0 0 548.42 1170.94"><defs><style>.cls-1{opacity:0.1;}</style></defs><title>Asset 6</title><g id="Layer_2" data-name="Layer 2"><g id="Layer_1-2" data-name="Layer 1"><circle class="cls-1" cx="146.88" cy="5.4" r="5.4"/><circle class="cls-1" cx="146.88" cy="33.69" r="5.4"/><circle class="cls-1" cx="146.88" cy="61.99" r="5.4"/><circle class="cls-1" cx="146.88" cy="90.29" r="5.4"/><circle class="cls-1" cx="146.88" cy="118.58" r="5.4"/><circle class="cls-1" cx="146.88" cy="146.88" r="5.4"/><circle class="cls-1" cx="146.88" cy="175.18" r="5.4"/><circle class="cls-1" cx="146.88" cy="203.47" r="5.4"/><circle class="cls-1" cx="146.88" cy="231.77" r="5.4"/><circle class="cls-1" cx="146.88" cy="260.06" r="5.4"/><circle class="cls-1" cx="118.58" cy="5.4" r="5.4"/><circle class="cls-1" cx="118.58" cy="33.69" r="5.4"/><circle class="cls-1" cx="118.58" cy="61.99" r="5.4"/><circle class="cls-1" cx="118.58" cy="90.29" r="5.4"/><circle class="cls-1" cx="118.58" cy="118.58" r="5.4"/><circle class="cls-1" cx="118.58" cy="146.88" r="5.4"/><circle class="cls-1" cx="118.58" cy="175.18" r="5.4"/><circle class="cls-1" cx="118.58" cy="203.47" r="5.4"/><circle class="cls-1" cx="118.58" cy="231.77" r="5.4"/><circle class="cls-1" cx="118.58" cy="260.06" r="5.4"/><circle class="cls-1" cx="90.29" cy="5.4" r="5.4"/><circle class="cls-1" cx="90.29" cy="33.69" r="5.4"/><circle class="cls-1" cx="90.29" cy="61.99" r="5.4"/><circle class="cls-1" cx="90.29" cy="90.29" r="5.4"/><circle class="cls-1" cx="90.29" cy="118.58" r="5.4"/><circle class="cls-1" cx="90.29" cy="146.88" r="5.4"/><circle class="cls-1" cx="90.29" cy="175.18" r="5.4"/><circle class="cls-1" cx="90.29" cy="203.47" r="5.4"/><circle class="cls-1" cx="90.29" cy="231.77" r="5.4"/><circle class="cls-1" cx="90.29" cy="260.06" r="5.4"/><circle class="cls-1" cx="61.99" cy="5.4" r="5.4"/><circle class="cls-1" cx="61.99" cy="33.69" r="5.4"/><circle class="cls-1" cx="61.99" cy="61.99" r="5.4"/><circle class="cls-1" cx="61.99" cy="90.29" r="5.4"/><circle class="cls-1" cx="61.99" cy="118.58" r="5.4"/><circle class="cls-1" cx="61.99" cy="146.88" r="5.4"/><circle class="cls-1" cx="61.99" cy="175.18" r="5.4"/><circle class="cls-1" cx="61.99" cy="203.47" r="5.4"/><circle class="cls-1" cx="61.99" cy="231.77" r="5.4"/><circle class="cls-1" cx="61.99" cy="260.06" r="5.4"/><circle class="cls-1" cx="33.69" cy="5.4" r="5.4"/><circle class="cls-1" cx="33.69" cy="33.69" r="5.4"/><circle class="cls-1" cx="33.69" cy="61.99" r="5.4"/><circle class="cls-1" cx="33.69" cy="90.29" r="5.4"/><circle class="cls-1" cx="33.69" cy="118.58" r="5.4"/><circle class="cls-1" cx="33.69" cy="146.88" r="5.4"/><circle class="cls-1" cx="33.69" cy="175.18" r="5.4"/><circle class="cls-1" cx="33.69" cy="203.47" r="5.4"/><circle class="cls-1" cx="33.69" cy="231.77" r="5.4"/><circle class="cls-1" cx="33.69" cy="260.06" r="5.4"/><circle class="cls-1" cx="5.4" cy="5.4" r="5.4"/><circle class="cls-1" cx="5.4" cy="33.69" r="5.4"/><circle class="cls-1" cx="5.4" cy="61.99" r="5.4"/><circle class="cls-1" cx="5.4" cy="90.29" r="5.4"/><circle class="cls-1" cx="5.4" cy="118.58" r="5.4"/><circle class="cls-1" cx="5.4" cy="146.88" r="5.4"/><circle class="cls-1" cx="5.4" cy="175.18" r="5.4"/><circle class="cls-1" cx="5.4" cy="203.47" r="5.4"/><circle class="cls-1" cx="5.4" cy="231.77" r="5.4"/><circle class="cls-1" cx="5.4" cy="260.06" r="5.4"/><circle class="cls-1" cx="175.18" cy="5.4" r="5.4"/><circle class="cls-1" cx="175.18" cy="33.69" r="5.4"/><circle class="cls-1" cx="175.18" cy="61.99" r="5.4"/><circle class="cls-1" cx="175.18" cy="90.29" r="5.4"/><circle class="cls-1" cx="175.18" cy="118.58" r="5.4"/><circle class="cls-1" cx="175.18" cy="146.88" r="5.4"/><circle class="cls-1" cx="175.18" cy="175.18" r="5.4"/><circle class="cls-1" cx="175.18" cy="203.47" r="5.4"/><circle class="cls-1" cx="175.18" cy="231.77" r="5.4"/><circle class="cls-1" cx="175.18" cy="260.06" r="5.4"/><circle class="cls-1" cx="203.47" cy="5.4" r="5.4"/><circle class="cls-1" cx="203.47" cy="33.69" r="5.4"/><circle class="cls-1" cx="203.47" cy="61.99" r="5.4"/><circle class="cls-1" cx="203.47" cy="90.29" r="5.4"/><circle class="cls-1" cx="203.47" cy="118.58" r="5.4"/><circle class="cls-1" cx="203.47" cy="146.88" r="5.4"/><circle class="cls-1" cx="203.47" cy="175.18" r="5.4"/><circle class="cls-1" cx="203.47" cy="203.47" r="5.4"/><circle class="cls-1" cx="203.47" cy="231.77" r="5.4"/><circle class="cls-1" cx="203.47" cy="260.06" r="5.4"/><circle class="cls-1" cx="231.77" cy="5.4" r="5.4"/><circle class="cls-1" cx="231.77" cy="33.69" r="5.4"/><circle class="cls-1" cx="231.77" cy="61.99" r="5.4"/><circle class="cls-1" cx="231.77" cy="90.29" r="5.4"/><circle class="cls-1" cx="231.77" cy="118.58" r="5.4"/><circle class="cls-1" cx="231.77" cy="146.88" r="5.4"/><circle class="cls-1" cx="231.77" cy="175.18" r="5.4"/><circle class="cls-1" cx="231.77" cy="203.47" r="5.4"/><circle class="cls-1" cx="231.77" cy="231.77" r="5.4"/><circle class="cls-1" cx="231.77" cy="260.06" r="5.4"/><circle class="cls-1" cx="260.06" cy="5.4" r="5.4"/><circle class="cls-1" cx="260.06" cy="33.69" r="5.4"/><circle class="cls-1" cx="260.06" cy="61.99" r="5.4"/><circle class="cls-1" cx="260.06" cy="90.29" r="5.4"/><circle class="cls-1" cx="260.06" cy="118.58" r="5.4"/><circle class="cls-1" cx="260.06" cy="146.88" r="5.4"/><circle class="cls-1" cx="260.06" cy="175.18" r="5.4"/><circle class="cls-1" cx="260.06" cy="203.47" r="5.4"/><circle class="cls-1" cx="260.06" cy="231.77" r="5.4"/><circle class="cls-1" cx="260.06" cy="260.06" r="5.4"/><circle class="cls-1" cx="288.36" cy="5.4" r="5.4"/><circle class="cls-1" cx="288.36" cy="33.69" r="5.4"/><circle class="cls-1" cx="288.36" cy="61.99" r="5.4"/><circle class="cls-1" cx="288.36" cy="90.29" r="5.4"/><circle class="cls-1" cx="288.36" cy="118.58" r="5.4"/><circle class="cls-1" cx="288.36" cy="146.88" r="5.4"/><circle class="cls-1" cx="288.36" cy="175.18" r="5.4"/><circle class="cls-1" cx="288.36" cy="203.47" r="5.4"/><circle class="cls-1" cx="288.36" cy="231.77" r="5.4"/><circle class="cls-1" cx="288.36" cy="260.06" r="5.4"/><circle class="cls-1" cx="316.66" cy="5.4" r="5.4"/><circle class="cls-1" cx="316.66" cy="33.69" r="5.4"/><circle class="cls-1" cx="316.66" cy="61.99" r="5.4"/><circle class="cls-1" cx="316.66" cy="90.29" r="5.4"/><circle class="cls-1" cx="316.66" cy="118.58" r="5.4"/><circle class="cls-1" cx="316.66" cy="146.88" r="5.4"/><circle class="cls-1" cx="316.66" cy="175.18" r="5.4"/><circle class="cls-1" cx="316.66" cy="203.47" r="5.4"/><circle class="cls-1" cx="316.66" cy="231.77" r="5.4"/><circle class="cls-1" cx="316.66" cy="260.06" r="5.4"/><circle class="cls-1" cx="344.95" cy="5.4" r="5.4"/><circle class="cls-1" cx="344.95" cy="33.69" r="5.4"/><circle class="cls-1" cx="344.95" cy="61.99" r="5.4"/><circle class="cls-1" cx="344.95" cy="90.29" r="5.4"/><circle class="cls-1" cx="344.95" cy="118.58" r="5.4"/><circle class="cls-1" cx="344.95" cy="146.88" r="5.4"/><circle class="cls-1" cx="344.95" cy="175.18" r="5.4"/><circle class="cls-1" cx="344.95" cy="203.47" r="5.4"/><circle class="cls-1" cx="344.95" cy="231.77" r="5.4"/><circle class="cls-1" cx="344.95" cy="260.06" r="5.4"/><circle class="cls-1" cx="373.25" cy="5.4" r="5.4"/><circle class="cls-1" cx="373.25" cy="33.69" r="5.4"/><circle class="cls-1" cx="373.25" cy="61.99" r="5.4"/><circle class="cls-1" cx="373.25" cy="90.29" r="5.4"/><circle class="cls-1" cx="373.25" cy="118.58" r="5.4"/><circle class="cls-1" cx="373.25" cy="146.88" r="5.4"/><circle class="cls-1" cx="373.25" cy="175.18" r="5.4"/><circle class="cls-1" cx="373.25" cy="203.47" r="5.4"/><circle class="cls-1" cx="373.25" cy="231.77" r="5.4"/><circle class="cls-1" cx="373.25" cy="260.06" r="5.4"/><circle class="cls-1" cx="401.55" cy="5.4" r="5.4"/><circle class="cls-1" cx="401.55" cy="33.69" r="5.4"/><circle class="cls-1" cx="401.55" cy="61.99" r="5.4"/><circle class="cls-1" cx="401.55" cy="90.29" r="5.4"/><circle class="cls-1" cx="401.55" cy="118.58" r="5.4"/><circle class="cls-1" cx="401.55" cy="146.88" r="5.4"/><circle class="cls-1" cx="401.55" cy="175.18" r="5.4"/><circle class="cls-1" cx="401.55" cy="203.47" r="5.4"/><circle class="cls-1" cx="401.55" cy="231.77" r="5.4"/><circle class="cls-1" cx="401.55" cy="260.06" r="5.4"/><circle class="cls-1" cx="429.84" cy="5.4" r="5.4"/><circle class="cls-1" cx="429.84" cy="33.69" r="5.4"/><circle class="cls-1" cx="429.84" cy="61.99" r="5.4"/><circle class="cls-1" cx="429.84" cy="90.29" r="5.4"/><circle class="cls-1" cx="429.84" cy="118.58" r="5.4"/><circle class="cls-1" cx="429.84" cy="146.88" r="5.4"/><circle class="cls-1" cx="429.84" cy="175.18" r="5.4"/><circle class="cls-1" cx="429.84" cy="203.47" r="5.4"/><circle class="cls-1" cx="429.84" cy="231.77" r="5.4"/><circle class="cls-1" cx="429.84" cy="260.06" r="5.4"/><circle class="cls-1" cx="458.14" cy="5.4" r="5.4"/><circle class="cls-1" cx="458.14" cy="33.69" r="5.4"/><circle class="cls-1" cx="458.14" cy="61.99" r="5.4"/><circle class="cls-1" cx="458.14" cy="90.29" r="5.4"/><circle class="cls-1" cx="458.14" cy="118.58" r="5.4"/><circle class="cls-1" cx="458.14" cy="146.88" r="5.4"/><circle class="cls-1" cx="458.14" cy="175.18" r="5.4"/><circle class="cls-1" cx="458.14" cy="203.47" r="5.4"/><circle class="cls-1" cx="458.14" cy="231.77" r="5.4"/><circle class="cls-1" cx="458.14" cy="260.06" r="5.4"/><circle class="cls-1" cx="486.43" cy="5.4" r="5.4"/><circle class="cls-1" cx="486.43" cy="33.69" r="5.4"/><circle class="cls-1" cx="486.43" cy="61.99" r="5.4"/><circle class="cls-1" cx="486.43" cy="90.29" r="5.4"/><circle class="cls-1" cx="486.43" cy="118.58" r="5.4"/><circle class="cls-1" cx="486.43" cy="146.88" r="5.4"/><circle class="cls-1" cx="486.43" cy="175.18" r="5.4"/><circle class="cls-1" cx="486.43" cy="203.47" r="5.4"/><circle class="cls-1" cx="486.43" cy="231.77" r="5.4"/><circle class="cls-1" cx="486.43" cy="260.06" r="5.4"/><circle class="cls-1" cx="514.73" cy="5.4" r="5.4"/><circle class="cls-1" cx="514.73" cy="33.69" r="5.4"/><circle class="cls-1" cx="514.73" cy="61.99" r="5.4"/><circle class="cls-1" cx="514.73" cy="90.29" r="5.4"/><circle class="cls-1" cx="514.73" cy="118.58" r="5.4"/><circle class="cls-1" cx="514.73" cy="146.88" r="5.4"/><circle class="cls-1" cx="514.73" cy="175.18" r="5.4"/><circle class="cls-1" cx="514.73" cy="203.47" r="5.4"/><circle class="cls-1" cx="514.73" cy="231.77" r="5.4"/><circle class="cls-1" cx="514.73" cy="260.06" r="5.4"/><circle class="cls-1" cx="543.03" cy="5.4" r="5.4"/><circle class="cls-1" cx="543.03" cy="33.69" r="5.4"/><circle class="cls-1" cx="543.03" cy="61.99" r="5.4"/><circle class="cls-1" cx="543.03" cy="90.29" r="5.4"/><circle class="cls-1" cx="543.03" cy="118.58" r="5.4"/><circle class="cls-1" cx="543.03" cy="146.88" r="5.4"/><circle class="cls-1" cx="543.03" cy="175.18" r="5.4"/><circle class="cls-1" cx="543.03" cy="203.47" r="5.4"/><circle class="cls-1" cx="543.03" cy="231.77" r="5.4"/><circle class="cls-1" cx="543.03" cy="260.06" r="5.4"/><circle class="cls-1" cx="146.88" cy="288.36" r="5.4"/><circle class="cls-1" cx="175.18" cy="288.36" r="5.4"/><circle class="cls-1" cx="203.47" cy="288.36" r="5.4"/><circle class="cls-1" cx="231.77" cy="288.36" r="5.4"/><circle class="cls-1" cx="260.06" cy="288.36" r="5.4"/><circle class="cls-1" cx="288.36" cy="288.36" r="5.4"/><circle class="cls-1" cx="316.66" cy="288.36" r="5.4"/><circle class="cls-1" cx="344.95" cy="288.36" r="5.4"/><circle class="cls-1" cx="373.25" cy="288.36" r="5.4"/><circle class="cls-1" cx="401.55" cy="288.36" r="5.4"/><circle class="cls-1" cx="429.84" cy="288.36" r="5.4"/><circle class="cls-1" cx="458.14" cy="288.36" r="5.4"/><circle class="cls-1" cx="486.43" cy="288.36" r="5.4"/><circle class="cls-1" cx="514.73" cy="288.36" r="5.4"/><circle class="cls-1" cx="543.03" cy="288.36" r="5.4"/><circle class="cls-1" cx="146.88" cy="316.66" r="5.4"/><circle class="cls-1" cx="175.18" cy="316.66" r="5.4"/><circle class="cls-1" cx="203.47" cy="316.66" r="5.4"/><circle class="cls-1" cx="231.77" cy="316.66" r="5.4"/><circle class="cls-1" cx="260.06" cy="316.66" r="5.4"/><circle class="cls-1" cx="288.36" cy="316.66" r="5.4"/><circle class="cls-1" cx="316.66" cy="316.66" r="5.4"/><circle class="cls-1" cx="344.95" cy="316.66" r="5.4"/><circle class="cls-1" cx="373.25" cy="316.66" r="5.4"/><circle class="cls-1" cx="401.55" cy="316.66" r="5.4"/><circle class="cls-1" cx="429.84" cy="316.66" r="5.4"/><circle class="cls-1" cx="458.14" cy="316.66" r="5.4"/><circle class="cls-1" cx="486.43" cy="316.66" r="5.4"/><circle class="cls-1" cx="514.73" cy="316.66" r="5.4"/><circle class="cls-1" cx="543.03" cy="316.66" r="5.4"/><circle class="cls-1" cx="146.88" cy="344.95" r="5.4"/><circle class="cls-1" cx="175.18" cy="344.95" r="5.4"/><circle class="cls-1" cx="203.47" cy="344.95" r="5.4"/><circle class="cls-1" cx="231.77" cy="344.95" r="5.4"/><circle class="cls-1" cx="260.06" cy="344.95" r="5.4"/><circle class="cls-1" cx="288.36" cy="344.95" r="5.4"/><circle class="cls-1" cx="316.66" cy="344.95" r="5.4"/><circle class="cls-1" cx="344.95" cy="344.95" r="5.4"/><circle class="cls-1" cx="373.25" cy="344.95" r="5.4"/><circle class="cls-1" cx="401.55" cy="344.95" r="5.4"/><circle class="cls-1" cx="429.84" cy="344.95" r="5.4"/><circle class="cls-1" cx="458.14" cy="344.95" r="5.4"/><circle class="cls-1" cx="486.43" cy="344.95" r="5.4"/><circle class="cls-1" cx="514.73" cy="344.95" r="5.4"/><circle class="cls-1" cx="543.03" cy="344.95" r="5.4"/><circle class="cls-1" cx="146.88" cy="373.25" r="5.4"/><circle class="cls-1" cx="175.18" cy="373.25" r="5.4"/><circle class="cls-1" cx="203.47" cy="373.25" r="5.4"/><circle class="cls-1" cx="231.77" cy="373.25" r="5.4"/><circle class="cls-1" cx="260.06" cy="373.25" r="5.4"/><circle class="cls-1" cx="288.36" cy="373.25" r="5.4"/><circle class="cls-1" cx="316.66" cy="373.25" r="5.4"/><circle class="cls-1" cx="344.95" cy="373.25" r="5.4"/><circle class="cls-1" cx="373.25" cy="373.25" r="5.4"/><circle class="cls-1" cx="401.55" cy="373.25" r="5.4"/><circle class="cls-1" cx="429.84" cy="373.25" r="5.4"/><circle class="cls-1" cx="458.14" cy="373.25" r="5.4"/><circle class="cls-1" cx="486.43" cy="373.25" r="5.4"/><circle class="cls-1" cx="514.73" cy="373.25" r="5.4"/><circle class="cls-1" cx="543.03" cy="373.25" r="5.4"/><circle class="cls-1" cx="146.88" cy="401.55" r="5.4"/><circle class="cls-1" cx="175.18" cy="401.55" r="5.4"/><circle class="cls-1" cx="203.47" cy="401.55" r="5.4"/><circle class="cls-1" cx="231.77" cy="401.55" r="5.4"/><circle class="cls-1" cx="260.06" cy="401.55" r="5.4"/><circle class="cls-1" cx="288.36" cy="401.55" r="5.4"/><circle class="cls-1" cx="316.66" cy="401.55" r="5.4"/><circle class="cls-1" cx="344.95" cy="401.55" r="5.4"/><circle class="cls-1" cx="373.25" cy="401.55" r="5.4"/><circle class="cls-1" cx="401.55" cy="401.55" r="5.4"/><circle class="cls-1" cx="429.84" cy="401.55" r="5.4"/><circle class="cls-1" cx="458.14" cy="401.55" r="5.4"/><circle class="cls-1" cx="486.43" cy="401.55" r="5.4"/><circle class="cls-1" cx="514.73" cy="401.55" r="5.4"/><circle class="cls-1" cx="543.03" cy="401.55" r="5.4"/><circle class="cls-1" cx="146.88" cy="429.84" r="5.4"/><circle class="cls-1" cx="175.18" cy="429.84" r="5.4"/><circle class="cls-1" cx="203.47" cy="429.84" r="5.4"/><circle class="cls-1" cx="231.77" cy="429.84" r="5.4"/><circle class="cls-1" cx="260.06" cy="429.84" r="5.4"/><circle class="cls-1" cx="288.36" cy="429.84" r="5.4"/><circle class="cls-1" cx="316.66" cy="429.84" r="5.4"/><circle class="cls-1" cx="344.95" cy="429.84" r="5.4"/><circle class="cls-1" cx="373.25" cy="429.84" r="5.4"/><circle class="cls-1" cx="401.55" cy="429.84" r="5.4"/><circle class="cls-1" cx="429.84" cy="429.84" r="5.4"/><circle class="cls-1" cx="458.14" cy="429.84" r="5.4"/><circle class="cls-1" cx="486.43" cy="429.84" r="5.4"/><circle class="cls-1" cx="514.73" cy="429.84" r="5.4"/><circle class="cls-1" cx="543.03" cy="429.84" r="5.4"/><circle class="cls-1" cx="146.88" cy="458.14" r="5.4"/><circle class="cls-1" cx="175.18" cy="458.14" r="5.4"/><circle class="cls-1" cx="203.47" cy="458.14" r="5.4"/><circle class="cls-1" cx="231.77" cy="458.14" r="5.4"/><circle class="cls-1" cx="260.06" cy="458.14" r="5.4"/><circle class="cls-1" cx="288.36" cy="458.14" r="5.4"/><circle class="cls-1" cx="316.66" cy="458.14" r="5.4"/><circle class="cls-1" cx="344.95" cy="458.14" r="5.4"/><circle class="cls-1" cx="373.25" cy="458.14" r="5.4"/><circle class="cls-1" cx="401.55" cy="458.14" r="5.4"/><circle class="cls-1" cx="429.84" cy="458.14" r="5.4"/><circle class="cls-1" cx="458.14" cy="458.14" r="5.4"/><circle class="cls-1" cx="486.43" cy="458.14" r="5.4"/><circle class="cls-1" cx="514.73" cy="458.14" r="5.4"/><circle class="cls-1" cx="543.03" cy="458.14" r="5.4"/><circle class="cls-1" cx="146.88" cy="486.44" r="5.4"/><circle class="cls-1" cx="175.18" cy="486.44" r="5.4"/><circle class="cls-1" cx="203.47" cy="486.44" r="5.4"/><circle class="cls-1" cx="231.77" cy="486.44" r="5.4"/><circle class="cls-1" cx="260.06" cy="486.44" r="5.4"/><circle class="cls-1" cx="288.36" cy="486.44" r="5.4"/><circle class="cls-1" cx="316.66" cy="486.44" r="5.4"/><circle class="cls-1" cx="344.95" cy="486.44" r="5.4"/><circle class="cls-1" cx="373.25" cy="486.44" r="5.4"/><circle class="cls-1" cx="401.55" cy="486.44" r="5.4"/><circle class="cls-1" cx="429.84" cy="486.44" r="5.4"/><circle class="cls-1" cx="458.14" cy="486.44" r="5.4"/><circle class="cls-1" cx="486.43" cy="486.44" r="5.4"/><circle class="cls-1" cx="514.73" cy="486.44" r="5.4"/><circle class="cls-1" cx="543.03" cy="486.44" r="5.4"/><circle class="cls-1" cx="146.88" cy="514.73" r="5.4"/><circle class="cls-1" cx="175.18" cy="514.73" r="5.4"/><circle class="cls-1" cx="203.47" cy="514.73" r="5.4"/><circle class="cls-1" cx="231.77" cy="514.73" r="5.4"/><circle class="cls-1" cx="260.06" cy="514.73" r="5.4"/><circle class="cls-1" cx="288.36" cy="514.73" r="5.4"/><circle class="cls-1" cx="316.66" cy="514.73" r="5.4"/><circle class="cls-1" cx="344.95" cy="514.73" r="5.4"/><circle class="cls-1" cx="373.25" cy="514.73" r="5.4"/><circle class="cls-1" cx="401.55" cy="514.73" r="5.4"/><circle class="cls-1" cx="429.84" cy="514.73" r="5.4"/><circle class="cls-1" cx="458.14" cy="514.73" r="5.4"/><circle class="cls-1" cx="486.43" cy="514.73" r="5.4"/><circle class="cls-1" cx="514.73" cy="514.73" r="5.4"/><circle class="cls-1" cx="543.03" cy="514.73" r="5.4"/><circle class="cls-1" cx="146.88" cy="543.03" r="5.4"/><circle class="cls-1" cx="175.18" cy="543.03" r="5.4"/><circle class="cls-1" cx="203.47" cy="543.03" r="5.4"/><circle class="cls-1" cx="231.77" cy="543.03" r="5.4"/><circle class="cls-1" cx="260.06" cy="543.03" r="5.4"/><circle class="cls-1" cx="288.36" cy="543.03" r="5.4"/><circle class="cls-1" cx="316.66" cy="543.03" r="5.4"/><circle class="cls-1" cx="344.95" cy="543.03" r="5.4"/><circle class="cls-1" cx="373.25" cy="543.03" r="5.4"/><circle class="cls-1" cx="401.55" cy="543.03" r="5.4"/><circle class="cls-1" cx="429.84" cy="543.03" r="5.4"/><circle class="cls-1" cx="458.14" cy="543.03" r="5.4"/><circle class="cls-1" cx="486.43" cy="543.03" r="5.4"/><circle class="cls-1" cx="514.73" cy="543.03" r="5.4"/><circle class="cls-1" cx="543.03" cy="543.03" r="5.4"/><circle class="cls-1" cx="146.88" cy="571.32" r="5.4"/><circle class="cls-1" cx="175.18" cy="571.32" r="5.4"/><circle class="cls-1" cx="203.47" cy="571.32" r="5.4"/><circle class="cls-1" cx="231.77" cy="571.32" r="5.4"/><circle class="cls-1" cx="260.06" cy="571.32" r="5.4"/><circle class="cls-1" cx="288.36" cy="571.32" r="5.4"/><circle class="cls-1" cx="316.66" cy="571.32" r="5.4"/><circle class="cls-1" cx="344.95" cy="571.32" r="5.4"/><circle class="cls-1" cx="373.25" cy="571.32" r="5.4"/><circle class="cls-1" cx="401.55" cy="571.32" r="5.4"/><circle class="cls-1" cx="429.84" cy="571.32" r="5.4"/><circle class="cls-1" cx="458.14" cy="571.32" r="5.4"/><circle class="cls-1" cx="486.43" cy="571.32" r="5.4"/><circle class="cls-1" cx="514.73" cy="571.32" r="5.4"/><circle class="cls-1" cx="543.03" cy="571.32" r="5.4"/><circle class="cls-1" cx="146.88" cy="599.62" r="5.4"/><circle class="cls-1" cx="175.18" cy="599.62" r="5.4"/><circle class="cls-1" cx="203.47" cy="599.62" r="5.4"/><circle class="cls-1" cx="231.77" cy="599.62" r="5.4"/><circle class="cls-1" cx="260.06" cy="599.62" r="5.4"/><circle class="cls-1" cx="288.36" cy="599.62" r="5.4"/><circle class="cls-1" cx="316.66" cy="599.62" r="5.4"/><circle class="cls-1" cx="344.95" cy="599.62" r="5.4"/><circle class="cls-1" cx="373.25" cy="599.62" r="5.4"/><circle class="cls-1" cx="401.55" cy="599.62" r="5.4"/><circle class="cls-1" cx="429.84" cy="599.62" r="5.4"/><circle class="cls-1" cx="458.14" cy="599.62" r="5.4"/><circle class="cls-1" cx="486.43" cy="599.62" r="5.4"/><circle class="cls-1" cx="514.73" cy="599.62" r="5.4"/><circle class="cls-1" cx="543.03" cy="599.62" r="5.4"/><circle class="cls-1" cx="146.88" cy="627.92" r="5.4"/><circle class="cls-1" cx="175.18" cy="627.92" r="5.4"/><circle class="cls-1" cx="203.47" cy="627.92" r="5.4"/><circle class="cls-1" cx="231.77" cy="627.92" r="5.4"/><circle class="cls-1" cx="260.06" cy="627.92" r="5.4"/><circle class="cls-1" cx="288.36" cy="627.92" r="5.4"/><circle class="cls-1" cx="316.66" cy="627.92" r="5.4"/><circle class="cls-1" cx="344.95" cy="627.92" r="5.4"/><circle class="cls-1" cx="373.25" cy="627.92" r="5.4"/><circle class="cls-1" cx="401.55" cy="627.92" r="5.4"/><circle class="cls-1" cx="429.84" cy="627.92" r="5.4"/><circle class="cls-1" cx="458.14" cy="627.92" r="5.4"/><circle class="cls-1" cx="486.43" cy="627.92" r="5.4"/><circle class="cls-1" cx="514.73" cy="627.92" r="5.4"/><circle class="cls-1" cx="543.03" cy="627.92" r="5.4"/><circle class="cls-1" cx="146.88" cy="656.21" r="5.4"/><circle class="cls-1" cx="175.18" cy="656.21" r="5.4"/><circle class="cls-1" cx="203.47" cy="656.21" r="5.4"/><circle class="cls-1" cx="231.77" cy="656.21" r="5.4"/><circle class="cls-1" cx="260.06" cy="656.21" r="5.4"/><circle class="cls-1" cx="288.36" cy="656.21" r="5.4"/><circle class="cls-1" cx="316.66" cy="656.21" r="5.4"/><circle class="cls-1" cx="344.95" cy="656.21" r="5.4"/><circle class="cls-1" cx="373.25" cy="656.21" r="5.4"/><circle class="cls-1" cx="401.55" cy="656.21" r="5.4"/><circle class="cls-1" cx="429.84" cy="656.21" r="5.4"/><circle class="cls-1" cx="458.14" cy="656.21" r="5.4"/><circle class="cls-1" cx="486.43" cy="656.21" r="5.4"/><circle class="cls-1" cx="514.73" cy="656.21" r="5.4"/><circle class="cls-1" cx="543.03" cy="656.21" r="5.4"/><circle class="cls-1" cx="146.88" cy="684.51" r="5.4"/><circle class="cls-1" cx="175.18" cy="684.51" r="5.4"/><circle class="cls-1" cx="203.47" cy="684.51" r="5.4"/><circle class="cls-1" cx="231.77" cy="684.51" r="5.4"/><circle class="cls-1" cx="260.06" cy="684.51" r="5.4"/><circle class="cls-1" cx="288.36" cy="684.51" r="5.4"/><circle class="cls-1" cx="316.66" cy="684.51" r="5.4"/><circle class="cls-1" cx="344.95" cy="684.51" r="5.4"/><circle class="cls-1" cx="373.25" cy="684.51" r="5.4"/><circle class="cls-1" cx="401.55" cy="684.51" r="5.4"/><circle class="cls-1" cx="429.84" cy="684.51" r="5.4"/><circle class="cls-1" cx="458.14" cy="684.51" r="5.4"/><circle class="cls-1" cx="486.43" cy="684.51" r="5.4"/><circle class="cls-1" cx="514.73" cy="684.51" r="5.4"/><circle class="cls-1" cx="543.03" cy="684.51" r="5.4"/><circle class="cls-1" cx="146.88" cy="712.81" r="5.4"/><circle class="cls-1" cx="175.18" cy="712.81" r="5.4"/><circle class="cls-1" cx="203.47" cy="712.81" r="5.4"/><circle class="cls-1" cx="231.77" cy="712.81" r="5.4"/><circle class="cls-1" cx="260.06" cy="712.81" r="5.4"/><circle class="cls-1" cx="288.36" cy="712.81" r="5.4"/><circle class="cls-1" cx="316.66" cy="712.81" r="5.4"/><circle class="cls-1" cx="344.95" cy="712.81" r="5.4"/><circle class="cls-1" cx="373.25" cy="712.81" r="5.4"/><circle class="cls-1" cx="401.55" cy="712.81" r="5.4"/><circle class="cls-1" cx="429.84" cy="712.81" r="5.4"/><circle class="cls-1" cx="458.14" cy="712.81" r="5.4"/><circle class="cls-1" cx="486.43" cy="712.81" r="5.4"/><circle class="cls-1" cx="514.73" cy="712.81" r="5.4"/><circle class="cls-1" cx="543.03" cy="712.81" r="5.4"/><circle class="cls-1" cx="146.88" cy="741.1" r="5.4"/><circle class="cls-1" cx="175.18" cy="741.1" r="5.4"/><circle class="cls-1" cx="203.47" cy="741.1" r="5.4"/><circle class="cls-1" cx="231.77" cy="741.1" r="5.4"/><circle class="cls-1" cx="260.06" cy="741.1" r="5.4"/><circle class="cls-1" cx="288.36" cy="741.1" r="5.4"/><circle class="cls-1" cx="316.66" cy="741.1" r="5.4"/><circle class="cls-1" cx="344.95" cy="741.1" r="5.4"/><circle class="cls-1" cx="373.25" cy="741.1" r="5.4"/><circle class="cls-1" cx="401.55" cy="741.1" r="5.4"/><circle class="cls-1" cx="429.84" cy="741.1" r="5.4"/><circle class="cls-1" cx="458.14" cy="741.1" r="5.4"/><circle class="cls-1" cx="486.43" cy="741.1" r="5.4"/><circle class="cls-1" cx="514.73" cy="741.1" r="5.4"/><circle class="cls-1" cx="543.03" cy="741.1" r="5.4"/><circle class="cls-1" cx="146.88" cy="769.4" r="5.4"/><circle class="cls-1" cx="175.18" cy="769.4" r="5.4"/><circle class="cls-1" cx="203.47" cy="769.4" r="5.4"/><circle class="cls-1" cx="231.77" cy="769.4" r="5.4"/><circle class="cls-1" cx="260.06" cy="769.4" r="5.4"/><circle class="cls-1" cx="288.36" cy="769.4" r="5.4"/><circle class="cls-1" cx="316.66" cy="769.4" r="5.4"/><circle class="cls-1" cx="344.95" cy="769.4" r="5.4"/><circle class="cls-1" cx="373.25" cy="769.4" r="5.4"/><circle class="cls-1" cx="401.55" cy="769.4" r="5.4"/><circle class="cls-1" cx="429.84" cy="769.4" r="5.4"/><circle class="cls-1" cx="458.14" cy="769.4" r="5.4"/><circle class="cls-1" cx="486.43" cy="769.4" r="5.4"/><circle class="cls-1" cx="514.73" cy="769.4" r="5.4"/><circle class="cls-1" cx="543.03" cy="769.4" r="5.4"/><circle class="cls-1" cx="146.88" cy="797.69" r="5.4"/><circle class="cls-1" cx="118.58" cy="288.36" r="5.4"/><circle class="cls-1" cx="118.58" cy="316.66" r="5.4"/><circle class="cls-1" cx="118.58" cy="344.95" r="5.4"/><circle class="cls-1" cx="118.58" cy="373.25" r="5.4"/><circle class="cls-1" cx="118.58" cy="401.55" r="5.4"/><circle class="cls-1" cx="118.58" cy="429.84" r="5.4"/><circle class="cls-1" cx="118.58" cy="458.14" r="5.4"/><circle class="cls-1" cx="118.58" cy="486.44" r="5.4"/><circle class="cls-1" cx="118.58" cy="514.73" r="5.4"/><circle class="cls-1" cx="118.58" cy="543.03" r="5.4"/><circle class="cls-1" cx="118.58" cy="571.32" r="5.4"/><circle class="cls-1" cx="118.58" cy="599.62" r="5.4"/><circle class="cls-1" cx="118.58" cy="627.92" r="5.4"/><circle class="cls-1" cx="118.58" cy="656.21" r="5.4"/><circle class="cls-1" cx="118.58" cy="684.51" r="5.4"/><circle class="cls-1" cx="118.58" cy="712.81" r="5.4"/><circle class="cls-1" cx="118.58" cy="741.1" r="5.4"/><circle class="cls-1" cx="118.58" cy="769.4" r="5.4"/><circle class="cls-1" cx="118.58" cy="797.69" r="5.4"/><circle class="cls-1" cx="90.29" cy="288.36" r="5.4"/><circle class="cls-1" cx="90.29" cy="316.66" r="5.4"/><circle class="cls-1" cx="90.29" cy="344.95" r="5.4"/><circle class="cls-1" cx="90.29" cy="373.25" r="5.4"/><circle class="cls-1" cx="90.29" cy="401.55" r="5.4"/><circle class="cls-1" cx="90.29" cy="429.84" r="5.4"/><circle class="cls-1" cx="90.29" cy="458.14" r="5.4"/><circle class="cls-1" cx="90.29" cy="486.44" r="5.4"/><circle class="cls-1" cx="90.29" cy="514.73" r="5.4"/><circle class="cls-1" cx="90.29" cy="543.03" r="5.4"/><circle class="cls-1" cx="90.29" cy="571.32" r="5.4"/><circle class="cls-1" cx="90.29" cy="599.62" r="5.4"/><circle class="cls-1" cx="90.29" cy="627.92" r="5.4"/><circle class="cls-1" cx="90.29" cy="656.21" r="5.4"/><circle class="cls-1" cx="90.29" cy="684.51" r="5.4"/><circle class="cls-1" cx="90.29" cy="712.81" r="5.4"/><circle class="cls-1" cx="90.29" cy="741.1" r="5.4"/><circle class="cls-1" cx="90.29" cy="769.4" r="5.4"/><circle class="cls-1" cx="90.29" cy="797.69" r="5.4"/><circle class="cls-1" cx="61.99" cy="288.36" r="5.4"/><circle class="cls-1" cx="61.99" cy="316.66" r="5.4"/><circle class="cls-1" cx="61.99" cy="344.95" r="5.4"/><circle class="cls-1" cx="61.99" cy="373.25" r="5.4"/><circle class="cls-1" cx="61.99" cy="401.55" r="5.4"/><circle class="cls-1" cx="61.99" cy="429.84" r="5.4"/><circle class="cls-1" cx="61.99" cy="458.14" r="5.4"/><circle class="cls-1" cx="61.99" cy="486.44" r="5.4"/><circle class="cls-1" cx="61.99" cy="514.73" r="5.4"/><circle class="cls-1" cx="61.99" cy="543.03" r="5.4"/><circle class="cls-1" cx="61.99" cy="571.32" r="5.4"/><circle class="cls-1" cx="61.99" cy="599.62" r="5.4"/><circle class="cls-1" cx="61.99" cy="627.92" r="5.4"/><circle class="cls-1" cx="61.99" cy="656.21" r="5.4"/><circle class="cls-1" cx="61.99" cy="684.51" r="5.4"/><circle class="cls-1" cx="61.99" cy="712.81" r="5.4"/><circle class="cls-1" cx="61.99" cy="741.1" r="5.4"/><circle class="cls-1" cx="61.99" cy="769.4" r="5.4"/><circle class="cls-1" cx="61.99" cy="797.69" r="5.4"/><circle class="cls-1" cx="33.69" cy="797.69" r="5.4"/><circle class="cls-1" cx="5.4" cy="797.69" r="5.4"/><circle class="cls-1" cx="33.69" cy="288.36" r="5.4"/><circle class="cls-1" cx="33.69" cy="316.66" r="5.4"/><circle class="cls-1" cx="33.69" cy="344.95" r="5.4"/><circle class="cls-1" cx="33.69" cy="373.25" r="5.4"/><circle class="cls-1" cx="33.69" cy="401.55" r="5.4"/><circle class="cls-1" cx="33.69" cy="429.84" r="5.4"/><circle class="cls-1" cx="33.69" cy="458.14" r="5.4"/><circle class="cls-1" cx="33.69" cy="486.44" r="5.4"/><circle class="cls-1" cx="33.69" cy="514.73" r="5.4"/><circle class="cls-1" cx="33.69" cy="543.03" r="5.4"/><circle class="cls-1" cx="33.69" cy="571.32" r="5.4"/><circle class="cls-1" cx="33.69" cy="599.62" r="5.4"/><circle class="cls-1" cx="33.69" cy="627.92" r="5.4"/><circle class="cls-1" cx="33.69" cy="656.21" r="5.4"/><circle class="cls-1" cx="33.69" cy="684.51" r="5.4"/><circle class="cls-1" cx="33.69" cy="712.81" r="5.4"/><circle class="cls-1" cx="33.69" cy="741.1" r="5.4"/><circle class="cls-1" cx="33.69" cy="769.4" r="5.4"/><circle class="cls-1" cx="5.4" cy="288.36" r="5.4"/><circle class="cls-1" cx="5.4" cy="316.66" r="5.4"/><circle class="cls-1" cx="5.4" cy="344.95" r="5.4"/><circle class="cls-1" cx="5.4" cy="373.25" r="5.4"/><circle class="cls-1" cx="5.4" cy="401.55" r="5.4"/><circle class="cls-1" cx="5.4" cy="429.84" r="5.4"/><circle class="cls-1" cx="5.4" cy="458.14" r="5.4"/><circle class="cls-1" cx="5.4" cy="486.44" r="5.4"/><circle class="cls-1" cx="5.4" cy="514.73" r="5.4"/><circle class="cls-1" cx="5.4" cy="543.03" r="5.4"/><circle class="cls-1" cx="5.4" cy="571.32" r="5.4"/><circle class="cls-1" cx="5.4" cy="599.62" r="5.4"/><circle class="cls-1" cx="5.4" cy="627.92" r="5.4"/><circle class="cls-1" cx="5.4" cy="656.21" r="5.4"/><circle class="cls-1" cx="5.4" cy="684.51" r="5.4"/><circle class="cls-1" cx="5.4" cy="712.81" r="5.4"/><circle class="cls-1" cx="5.4" cy="741.1" r="5.4"/><circle class="cls-1" cx="5.4" cy="769.4" r="5.4"/><circle class="cls-1" cx="175.18" cy="797.69" r="5.4"/><circle class="cls-1" cx="203.47" cy="797.69" r="5.4"/><circle class="cls-1" cx="231.77" cy="797.69" r="5.4"/><circle class="cls-1" cx="260.06" cy="797.69" r="5.4"/><circle class="cls-1" cx="288.36" cy="797.69" r="5.4"/><circle class="cls-1" cx="316.66" cy="797.69" r="5.4"/><circle class="cls-1" cx="344.95" cy="797.69" r="5.4"/><circle class="cls-1" cx="373.25" cy="797.69" r="5.4"/><circle class="cls-1" cx="401.55" cy="797.69" r="5.4"/><circle class="cls-1" cx="429.84" cy="797.69" r="5.4"/><circle class="cls-1" cx="458.14" cy="797.69" r="5.4"/><circle class="cls-1" cx="486.43" cy="797.69" r="5.4"/><circle class="cls-1" cx="514.73" cy="797.69" r="5.4"/><circle class="cls-1" cx="543.03" cy="797.69" r="5.4"/><circle class="cls-1" cx="146.88" cy="825.99" r="5.4"/><circle class="cls-1" cx="118.58" cy="825.99" r="5.4"/><circle class="cls-1" cx="90.29" cy="825.99" r="5.4"/><circle class="cls-1" cx="61.99" cy="825.99" r="5.4"/><circle class="cls-1" cx="33.69" cy="825.99" r="5.4"/><circle class="cls-1" cx="5.4" cy="825.99" r="5.4"/><circle class="cls-1" cx="175.18" cy="825.99" r="5.4"/><circle class="cls-1" cx="203.47" cy="825.99" r="5.4"/><circle class="cls-1" cx="231.77" cy="825.99" r="5.4"/><circle class="cls-1" cx="260.06" cy="825.99" r="5.4"/><circle class="cls-1" cx="288.36" cy="825.99" r="5.4"/><circle class="cls-1" cx="316.66" cy="825.99" r="5.4"/><circle class="cls-1" cx="344.95" cy="825.99" r="5.4"/><circle class="cls-1" cx="373.25" cy="825.99" r="5.4"/><circle class="cls-1" cx="401.55" cy="825.99" r="5.4"/><circle class="cls-1" cx="429.84" cy="825.99" r="5.4"/><circle class="cls-1" cx="458.14" cy="825.99" r="5.4"/><circle class="cls-1" cx="486.43" cy="825.99" r="5.4"/><circle class="cls-1" cx="514.73" cy="825.99" r="5.4"/><circle class="cls-1" cx="543.03" cy="825.99" r="5.4"/><circle class="cls-1" cx="146.88" cy="854.29" r="5.4"/><circle class="cls-1" cx="118.58" cy="854.29" r="5.4"/><circle class="cls-1" cx="90.29" cy="854.29" r="5.4"/><circle class="cls-1" cx="61.99" cy="854.29" r="5.4"/><circle class="cls-1" cx="33.69" cy="854.29" r="5.4"/><circle class="cls-1" cx="5.4" cy="854.29" r="5.4"/><circle class="cls-1" cx="175.18" cy="854.29" r="5.4"/><circle class="cls-1" cx="203.47" cy="854.29" r="5.4"/><circle class="cls-1" cx="231.77" cy="854.29" r="5.4"/><circle class="cls-1" cx="260.06" cy="854.29" r="5.4"/><circle class="cls-1" cx="288.36" cy="854.29" r="5.4"/><circle class="cls-1" cx="316.66" cy="854.29" r="5.4"/><circle class="cls-1" cx="344.95" cy="854.29" r="5.4"/><circle class="cls-1" cx="373.25" cy="854.29" r="5.4"/><circle class="cls-1" cx="401.55" cy="854.29" r="5.4"/><circle class="cls-1" cx="429.84" cy="854.29" r="5.4"/><circle class="cls-1" cx="458.14" cy="854.29" r="5.4"/><circle class="cls-1" cx="486.43" cy="854.29" r="5.4"/><circle class="cls-1" cx="514.73" cy="854.29" r="5.4"/><circle class="cls-1" cx="543.03" cy="854.29" r="5.4"/><circle class="cls-1" cx="146.88" cy="882.58" r="5.4"/><circle class="cls-1" cx="118.58" cy="882.58" r="5.4"/><circle class="cls-1" cx="90.29" cy="882.58" r="5.4"/><circle class="cls-1" cx="61.99" cy="882.58" r="5.4"/><circle class="cls-1" cx="33.69" cy="882.58" r="5.4"/><circle class="cls-1" cx="5.4" cy="882.58" r="5.4"/><circle class="cls-1" cx="175.18" cy="882.58" r="5.4"/><circle class="cls-1" cx="203.47" cy="882.58" r="5.4"/><circle class="cls-1" cx="231.77" cy="882.58" r="5.4"/><circle class="cls-1" cx="260.06" cy="882.58" r="5.4"/><circle class="cls-1" cx="288.36" cy="882.58" r="5.4"/><circle class="cls-1" cx="316.66" cy="882.58" r="5.4"/><circle class="cls-1" cx="344.95" cy="882.58" r="5.4"/><circle class="cls-1" cx="373.25" cy="882.58" r="5.4"/><circle class="cls-1" cx="401.55" cy="882.58" r="5.4"/><circle class="cls-1" cx="429.84" cy="882.58" r="5.4"/><circle class="cls-1" cx="458.14" cy="882.58" r="5.4"/><circle class="cls-1" cx="486.43" cy="882.58" r="5.4"/><circle class="cls-1" cx="514.73" cy="882.58" r="5.4"/><circle class="cls-1" cx="543.03" cy="882.58" r="5.4"/><circle class="cls-1" cx="146.88" cy="910.88" r="5.4"/><circle class="cls-1" cx="118.58" cy="910.88" r="5.4"/><circle class="cls-1" cx="90.29" cy="910.88" r="5.4"/><circle class="cls-1" cx="61.99" cy="910.88" r="5.4"/><circle class="cls-1" cx="33.69" cy="910.88" r="5.4"/><circle class="cls-1" cx="5.4" cy="910.88" r="5.4"/><circle class="cls-1" cx="175.18" cy="910.88" r="5.4"/><circle class="cls-1" cx="203.47" cy="910.88" r="5.4"/><circle class="cls-1" cx="231.77" cy="910.88" r="5.4"/><circle class="cls-1" cx="260.06" cy="910.88" r="5.4"/><circle class="cls-1" cx="288.36" cy="910.88" r="5.4"/><circle class="cls-1" cx="316.66" cy="910.88" r="5.4"/><circle class="cls-1" cx="344.95" cy="910.88" r="5.4"/><circle class="cls-1" cx="373.25" cy="910.88" r="5.4"/><circle class="cls-1" cx="401.55" cy="910.88" r="5.4"/><circle class="cls-1" cx="429.84" cy="910.88" r="5.4"/><circle class="cls-1" cx="458.14" cy="910.88" r="5.4"/><circle class="cls-1" cx="486.43" cy="910.88" r="5.4"/><circle class="cls-1" cx="514.73" cy="910.88" r="5.4"/><circle class="cls-1" cx="543.03" cy="910.88" r="5.4"/><circle class="cls-1" cx="146.88" cy="939.18" r="5.4"/><circle class="cls-1" cx="118.58" cy="939.18" r="5.4"/><circle class="cls-1" cx="90.29" cy="939.18" r="5.4"/><circle class="cls-1" cx="61.99" cy="939.18" r="5.4"/><circle class="cls-1" cx="33.69" cy="939.18" r="5.4"/><circle class="cls-1" cx="5.4" cy="939.18" r="5.4"/><circle class="cls-1" cx="175.18" cy="939.18" r="5.4"/><circle class="cls-1" cx="203.47" cy="939.18" r="5.4"/><circle class="cls-1" cx="231.77" cy="939.18" r="5.4"/><circle class="cls-1" cx="260.06" cy="939.18" r="5.4"/><circle class="cls-1" cx="288.36" cy="939.18" r="5.4"/><circle class="cls-1" cx="316.66" cy="939.18" r="5.4"/><circle class="cls-1" cx="344.95" cy="939.18" r="5.4"/><circle class="cls-1" cx="373.25" cy="939.18" r="5.4"/><circle class="cls-1" cx="401.55" cy="939.18" r="5.4"/><circle class="cls-1" cx="429.84" cy="939.18" r="5.4"/><circle class="cls-1" cx="458.14" cy="939.18" r="5.4"/><circle class="cls-1" cx="486.43" cy="939.18" r="5.4"/><circle class="cls-1" cx="514.73" cy="939.18" r="5.4"/><circle class="cls-1" cx="543.03" cy="939.18" r="5.4"/><circle class="cls-1" cx="146.88" cy="967.47" r="5.4"/><circle class="cls-1" cx="118.58" cy="967.47" r="5.4"/><circle class="cls-1" cx="90.29" cy="967.47" r="5.4"/><circle class="cls-1" cx="61.99" cy="967.47" r="5.4"/><circle class="cls-1" cx="33.69" cy="967.47" r="5.4"/><circle class="cls-1" cx="5.4" cy="967.47" r="5.4"/><circle class="cls-1" cx="175.18" cy="967.47" r="5.4"/><circle class="cls-1" cx="203.47" cy="967.47" r="5.4"/><circle class="cls-1" cx="231.77" cy="967.47" r="5.4"/><circle class="cls-1" cx="260.06" cy="967.47" r="5.4"/><circle class="cls-1" cx="288.36" cy="967.47" r="5.4"/><circle class="cls-1" cx="316.66" cy="967.47" r="5.4"/><circle class="cls-1" cx="344.95" cy="967.47" r="5.4"/><circle class="cls-1" cx="373.25" cy="967.47" r="5.4"/><circle class="cls-1" cx="401.55" cy="967.47" r="5.4"/><circle class="cls-1" cx="429.84" cy="967.47" r="5.4"/><circle class="cls-1" cx="458.14" cy="967.47" r="5.4"/><circle class="cls-1" cx="486.43" cy="967.47" r="5.4"/><circle class="cls-1" cx="514.73" cy="967.47" r="5.4"/><circle class="cls-1" cx="543.03" cy="967.47" r="5.4"/><circle class="cls-1" cx="146.88" cy="995.77" r="5.4"/><circle class="cls-1" cx="118.58" cy="995.77" r="5.4"/><circle class="cls-1" cx="90.29" cy="995.77" r="5.4"/><circle class="cls-1" cx="61.99" cy="995.77" r="5.4"/><circle class="cls-1" cx="33.69" cy="995.77" r="5.4"/><circle class="cls-1" cx="5.4" cy="995.77" r="5.4"/><circle class="cls-1" cx="175.18" cy="995.77" r="5.4"/><circle class="cls-1" cx="203.47" cy="995.77" r="5.4"/><circle class="cls-1" cx="231.77" cy="995.77" r="5.4"/><circle class="cls-1" cx="260.06" cy="995.77" r="5.4"/><circle class="cls-1" cx="288.36" cy="995.77" r="5.4"/><circle class="cls-1" cx="316.66" cy="995.77" r="5.4"/><circle class="cls-1" cx="344.95" cy="995.77" r="5.4"/><circle class="cls-1" cx="373.25" cy="995.77" r="5.4"/><circle class="cls-1" cx="401.55" cy="995.77" r="5.4"/><circle class="cls-1" cx="429.84" cy="995.77" r="5.4"/><circle class="cls-1" cx="458.14" cy="995.77" r="5.4"/><circle class="cls-1" cx="486.43" cy="995.77" r="5.4"/><circle class="cls-1" cx="514.73" cy="995.77" r="5.4"/><circle class="cls-1" cx="543.03" cy="995.77" r="5.4"/><circle class="cls-1" cx="146.88" cy="1024.07" r="5.4"/><circle class="cls-1" cx="118.58" cy="1024.07" r="5.4"/><circle class="cls-1" cx="90.29" cy="1024.07" r="5.4"/><circle class="cls-1" cx="61.99" cy="1024.07" r="5.4"/><circle class="cls-1" cx="33.69" cy="1024.07" r="5.4"/><circle class="cls-1" cx="5.4" cy="1024.07" r="5.4"/><circle class="cls-1" cx="175.18" cy="1024.07" r="5.4"/><circle class="cls-1" cx="203.47" cy="1024.07" r="5.4"/><circle class="cls-1" cx="231.77" cy="1024.07" r="5.4"/><circle class="cls-1" cx="260.06" cy="1024.07" r="5.4"/><circle class="cls-1" cx="288.36" cy="1024.07" r="5.4"/><circle class="cls-1" cx="316.66" cy="1024.07" r="5.4"/><circle class="cls-1" cx="344.95" cy="1024.07" r="5.4"/><circle class="cls-1" cx="373.25" cy="1024.07" r="5.4"/><circle class="cls-1" cx="401.55" cy="1024.07" r="5.4"/><circle class="cls-1" cx="429.84" cy="1024.07" r="5.4"/><circle class="cls-1" cx="458.14" cy="1024.07" r="5.4"/><circle class="cls-1" cx="486.43" cy="1024.07" r="5.4"/><circle class="cls-1" cx="514.73" cy="1024.07" r="5.4"/><circle class="cls-1" cx="543.03" cy="1024.07" r="5.4"/><circle class="cls-1" cx="146.88" cy="1052.36" r="5.4"/><circle class="cls-1" cx="118.58" cy="1052.36" r="5.4"/><circle class="cls-1" cx="90.29" cy="1052.36" r="5.4"/><circle class="cls-1" cx="61.99" cy="1052.36" r="5.4"/><circle class="cls-1" cx="33.69" cy="1052.36" r="5.4"/><circle class="cls-1" cx="5.4" cy="1052.36" r="5.4"/><circle class="cls-1" cx="175.18" cy="1052.36" r="5.4"/><circle class="cls-1" cx="203.47" cy="1052.36" r="5.4"/><circle class="cls-1" cx="231.77" cy="1052.36" r="5.4"/><circle class="cls-1" cx="260.06" cy="1052.36" r="5.4"/><circle class="cls-1" cx="288.36" cy="1052.36" r="5.4"/><circle class="cls-1" cx="316.66" cy="1052.36" r="5.4"/><circle class="cls-1" cx="344.95" cy="1052.36" r="5.4"/><circle class="cls-1" cx="373.25" cy="1052.36" r="5.4"/><circle class="cls-1" cx="401.55" cy="1052.36" r="5.4"/><circle class="cls-1" cx="429.84" cy="1052.36" r="5.4"/><circle class="cls-1" cx="458.14" cy="1052.36" r="5.4"/><circle class="cls-1" cx="486.43" cy="1052.36" r="5.4"/><circle class="cls-1" cx="514.73" cy="1052.36" r="5.4"/><circle class="cls-1" cx="543.03" cy="1052.36" r="5.4"/><circle class="cls-1" cx="146.88" cy="1080.66" r="5.4"/><circle class="cls-1" cx="118.58" cy="1080.66" r="5.4"/><circle class="cls-1" cx="90.29" cy="1080.66" r="5.4"/><circle class="cls-1" cx="61.99" cy="1080.66" r="5.4"/><circle class="cls-1" cx="33.69" cy="1080.66" r="5.4"/><circle class="cls-1" cx="5.4" cy="1080.66" r="5.4"/><circle class="cls-1" cx="175.18" cy="1080.66" r="5.4"/><circle class="cls-1" cx="203.47" cy="1080.66" r="5.4"/><circle class="cls-1" cx="231.77" cy="1080.66" r="5.4"/><circle class="cls-1" cx="260.06" cy="1080.66" r="5.4"/><circle class="cls-1" cx="288.36" cy="1080.66" r="5.4"/><circle class="cls-1" cx="316.66" cy="1080.66" r="5.4"/><circle class="cls-1" cx="344.95" cy="1080.66" r="5.4"/><circle class="cls-1" cx="373.25" cy="1080.66" r="5.4"/><circle class="cls-1" cx="401.55" cy="1080.66" r="5.4"/><circle class="cls-1" cx="429.84" cy="1080.66" r="5.4"/><circle class="cls-1" cx="458.14" cy="1080.66" r="5.4"/><circle class="cls-1" cx="486.43" cy="1080.66" r="5.4"/><circle class="cls-1" cx="514.73" cy="1080.66" r="5.4"/><circle class="cls-1" cx="543.03" cy="1080.66" r="5.4"/><circle class="cls-1" cx="146.88" cy="1108.95" r="5.4"/><circle class="cls-1" cx="118.58" cy="1108.95" r="5.4"/><circle class="cls-1" cx="90.29" cy="1108.95" r="5.4"/><circle class="cls-1" cx="61.99" cy="1108.95" r="5.4"/><circle class="cls-1" cx="33.69" cy="1108.95" r="5.4"/><circle class="cls-1" cx="5.4" cy="1108.95" r="5.4"/><circle class="cls-1" cx="175.18" cy="1108.95" r="5.4"/><circle class="cls-1" cx="203.47" cy="1108.95" r="5.4"/><circle class="cls-1" cx="231.77" cy="1108.95" r="5.4"/><circle class="cls-1" cx="260.06" cy="1108.95" r="5.4"/><circle class="cls-1" cx="288.36" cy="1108.95" r="5.4"/><circle class="cls-1" cx="316.66" cy="1108.95" r="5.4"/><circle class="cls-1" cx="344.95" cy="1108.95" r="5.4"/><circle class="cls-1" cx="373.25" cy="1108.95" r="5.4"/><circle class="cls-1" cx="401.55" cy="1108.95" r="5.4"/><circle class="cls-1" cx="429.84" cy="1108.95" r="5.4"/><circle class="cls-1" cx="458.14" cy="1108.95" r="5.4"/><circle class="cls-1" cx="486.43" cy="1108.95" r="5.4"/><circle class="cls-1" cx="514.73" cy="1108.95" r="5.4"/><circle class="cls-1" cx="543.03" cy="1108.95" r="5.4"/><circle class="cls-1" cx="146.88" cy="1137.25" r="5.4"/><circle class="cls-1" cx="118.58" cy="1137.25" r="5.4"/><circle class="cls-1" cx="90.29" cy="1137.25" r="5.4"/><circle class="cls-1" cx="61.99" cy="1137.25" r="5.4"/><circle class="cls-1" cx="33.69" cy="1137.25" r="5.4"/><circle class="cls-1" cx="5.4" cy="1137.25" r="5.4"/><circle class="cls-1" cx="175.18" cy="1137.25" r="5.4"/><circle class="cls-1" cx="203.47" cy="1137.25" r="5.4"/><circle class="cls-1" cx="231.77" cy="1137.25" r="5.4"/><circle class="cls-1" cx="260.06" cy="1137.25" r="5.4"/><circle class="cls-1" cx="288.36" cy="1137.25" r="5.4"/><circle class="cls-1" cx="316.66" cy="1137.25" r="5.4"/><circle class="cls-1" cx="344.95" cy="1137.25" r="5.4"/><circle class="cls-1" cx="373.25" cy="1137.25" r="5.4"/><circle class="cls-1" cx="401.55" cy="1137.25" r="5.4"/><circle class="cls-1" cx="429.84" cy="1137.25" r="5.4"/><circle class="cls-1" cx="458.14" cy="1137.25" r="5.4"/><circle class="cls-1" cx="486.43" cy="1137.25" r="5.4"/><circle class="cls-1" cx="514.73" cy="1137.25" r="5.4"/><circle class="cls-1" cx="543.03" cy="1137.25" r="5.4"/><circle class="cls-1" cx="146.88" cy="1165.55" r="5.4"/><circle class="cls-1" cx="118.58" cy="1165.55" r="5.4"/><circle class="cls-1" cx="90.29" cy="1165.55" r="5.4"/><circle class="cls-1" cx="61.99" cy="1165.55" r="5.4"/><circle class="cls-1" cx="33.69" cy="1165.55" r="5.4"/><circle class="cls-1" cx="5.4" cy="1165.55" r="5.4"/><circle class="cls-1" cx="175.18" cy="1165.55" r="5.4"/><circle class="cls-1" cx="203.47" cy="1165.55" r="5.4"/><circle class="cls-1" cx="231.77" cy="1165.55" r="5.4"/><circle class="cls-1" cx="260.06" cy="1165.55" r="5.4"/><circle class="cls-1" cx="288.36" cy="1165.55" r="5.4"/><circle class="cls-1" cx="316.66" cy="1165.55" r="5.4"/><circle class="cls-1" cx="344.95" cy="1165.55" r="5.4"/><circle class="cls-1" cx="373.25" cy="1165.55" r="5.4"/><circle class="cls-1" cx="401.55" cy="1165.55" r="5.4"/><circle class="cls-1" cx="429.84" cy="1165.55" r="5.4"/><circle class="cls-1" cx="458.14" cy="1165.55" r="5.4"/><circle class="cls-1" cx="486.43" cy="1165.55" r="5.4"/><circle class="cls-1" cx="514.73" cy="1165.55" r="5.4"/><circle class="cls-1" cx="543.03" cy="1165.55" r="5.4"/></g></g></svg>