<svg xmlns="http://www.w3.org/2000/svg" viewBox="0 0 139.27 139.27"><defs><style>.cls-1{fill:#43b29d;stroke:#43b29d;}.cls-1,.cls-2,.cls-3{stroke-miterlimit:10;stroke-width:5px;}.cls-2{fill:#efc94d;}.cls-2,.cls-3{stroke:#434343;}.cls-3{fill:#df5a49;}</style></defs><title>Asset 2</title><g id="Layer_2" data-name="Layer 2"><g id="Layer_1-2" data-name="Layer 1"><circle class="cls-1" cx="72.76" cy="66.51" r="9.76"/><ellipse class="cls-1" cx="72.76" cy="29.63" rx="7.97" ry="27.13"/><ellipse class="cls-1" cx="72.76" cy="103.4" rx="7.97" ry="27.13"/><ellipse class="cls-1" cx="109.65" cy="66.51" rx="27.13" ry="7.97"/><ellipse class="cls-1" cx="35.87" cy="66.51" rx="27.13" ry="7.97"/><ellipse class="cls-1" cx="100.73" cy="94.48" rx="7.97" ry="27.13" transform="translate(-37.31 98.9) rotate(-45)"/><ellipse class="cls-1" cx="44.79" cy="38.54" rx="7.97" ry="27.13" transform="translate(-14.14 42.96) rotate(-45)"/><ellipse class="cls-1" cx="100.73" cy="38.54" rx="27.13" ry="7.97" transform="translate(2.25 82.51) rotate(-45)"/><circle class="cls-2" cx="66.51" cy="72.76" r="9.76"/><ellipse class="cls-3" cx="66.51" cy="35.87" rx="7.97" ry="27.13"/><ellipse class="cls-3" cx="66.51" cy="109.65" rx="7.97" ry="27.13"/><ellipse class="cls-3" cx="103.4" cy="72.76" rx="27.13" ry="7.97"/><ellipse class="cls-3" cx="29.63" cy="72.76" rx="27.13" ry="7.97"/><ellipse class="cls-3" cx="94.48" cy="100.73" rx="7.97" ry="27.13" transform="translate(-43.55 96.31) rotate(-45)"/><ellipse class="cls-3" cx="38.54" cy="44.79" rx="7.97" ry="27.13" transform="translate(-20.38 40.37) rotate(-45)"/><ellipse class="cls-3" cx="94.48" cy="44.79" rx="27.13" ry="7.97" transform="translate(-4 79.93) rotate(-45)"/><ellipse class="cls-3" cx="38.54" cy="100.73" rx="27.13" ry="7.97" transform="translate(-59.94 56.76) rotate(-45)"/></g></g></svg>