<svg xmlns="http://www.w3.org/2000/svg" viewBox="0 0 116.32 425.28"><defs><style>.cls-1,.cls-9{fill:#344d5c;}.cls-1,.cls-3,.cls-8{stroke:#344d5c;}.cls-1,.cls-10,.cls-11,.cls-12,.cls-13,.cls-14,.cls-15,.cls-16,.cls-17,.cls-18,.cls-19,.cls-2,.cls-3,.cls-4,.cls-5,.cls-6,.cls-7,.cls-8,.cls-9{stroke-linecap:round;stroke-linejoin:round;stroke-width:5px;}.cls-2,.cls-5,.cls-7{fill:#df5a49;}.cls-13,.cls-15,.cls-19,.cls-2,.cls-9{stroke:#43b29d;}.cls-13,.cls-3{fill:#434343;}.cls-15,.cls-17,.cls-4{fill:#43b29d;}.cls-11,.cls-4,.cls-6{stroke:#efc94d;}.cls-14,.cls-17,.cls-5{stroke:#585862;}.cls-12,.cls-14,.cls-19,.cls-6,.cls-8{fill:none;}.cls-12,.cls-16,.cls-7{stroke:#df5a49;}.cls-10{fill:#585862;}.cls-10,.cls-18{stroke:#434343;}.cls-11,.cls-16,.cls-18{fill:#efc94d;}</style></defs><title>Asset 5</title><g id="Layer_2" data-name="Layer 2"><g id="Layer_1-2" data-name="Layer 1"><polygon class="cls-1" points="97.99 420.66 113.82 393.24 82.16 393.24 97.99 420.66"/><polyline class="cls-2" points="44.45 422.78 71.87 406.95 44.45 391.12"/><polygon class="cls-3" points="44.45 335.91 71.87 351.74 71.87 320.07 44.45 335.91"/><polyline class="cls-4" points="44.45 284.55 44.45 303.19 44.45 316.22 71.87 300.39"/><polygon class="cls-5" points="58.16 243.05 73.99 215.63 42.33 215.63 58.16 243.05"/><polygon class="cls-6" points="58.16 180.11 73.99 207.53 42.33 207.53 58.16 180.11"/><polygon class="cls-7" points="44.45 158.3 71.87 174.13 71.87 142.47 44.45 158.3"/><polyline class="cls-8" points="58.15 136.49 73.98 109.06 42.32 109.06"/><polyline class="cls-9" points="58.16 73.54 42.32 100.97 73.99 100.97"/><polygon class="cls-10" points="58.16 65.44 73.99 38.02 42.33 38.02 58.16 65.44"/><polyline class="cls-8" points="42.33 2.5 58.16 29.92 73.99 2.5"/><polygon class="cls-11" points="18.33 357.72 2.5 385.14 34.17 385.14 18.33 357.72"/><polyline class="cls-12" points="32.04 320.07 4.62 335.91 32.04 351.74"/><polyline class="cls-13" points="32.04 264.87 4.62 249.03 4.62 280.7"/><polyline class="cls-14" points="34.17 215.63 2.5 215.63 11.79 231.72 18.33 243.05"/><polygon class="cls-15" points="18.33 109.06 2.5 136.49 34.17 136.49 18.33 109.06"/><polyline class="cls-16" points="34.17 100.97 26.11 87.01 18.33 73.54 2.5 100.97"/><polyline class="cls-17" points="113.82 385.14 97.99 357.72 82.16 385.14"/><polygon class="cls-12" points="111.7 264.87 84.28 249.03 84.28 280.7 111.7 264.87"/><polyline class="cls-18" points="111.7 245.18 111.7 213.51 84.28 229.34"/><polyline class="cls-19" points="113.82 180.11 82.16 180.11 97.99 207.53"/></g></g></svg>